<?xml version="1.0" encoding="UTF-8"?>
<svg width="1260" height="1070" xmlns="http://www.w3.org/2000/svg">
 <g>
  <title>upni</title>
  <rect fill="none" id="canvas_background" height="109" width="128" y="-1" x="-1"/>
 </g>
 <g>
  <title>Layer 1</title>
  <path id="svg_2" fill="#000000" d="m769.74707,705.114136c0,0 36.27771,0 36.27771,0c10.478821,-0.109314 21.085754,-0.109314 28.6922,6.453247c5.905457,5.089233 8.271606,12.039612 8.271606,18.212524c0,17.666626 -15.220886,21.862061 -19.804138,23.185425c14.296326,1.281372 15.340332,9.433716 17.050293,21.741699c1.44165,11.11499 2.21698,15.737915 2.87323,18.332825c1.053833,4.195435 1.829224,5.249207 2.873108,6.839966c0,0 -22.408936,0 -22.408936,0c-0.884766,-5.249329 -3.797668,-29.248901 -5.119995,-32.897644c-1.829285,-5.358582 -6.800171,-5.358582 -10.18042,-5.358582c0,0 -17.825745,0 -17.825745,0c0,0 0,38.256226 0,38.256226c0,0 -20.698914,0 -20.698914,0c0,0 0,-94.765686 0,-94.765686c0,0 0,0 0,0c0,0 0,0 0,0l0,0zm20.042786,41.408813c0,0 16.384094,0 16.384094,0c2.336365,0 7.068726,0 10.329651,-2.605774c1.440552,-1.053833 5.249207,-4.314758 5.249207,-10.995667c0,-6.441345 -3.15155,-9.434875 -4.970947,-10.637756c-3.15155,-2.217041 -6.949219,-2.217041 -13.361877,-2.217041c0,0 -13.630127,0 -13.630127,0c0,0 0,26.456238 0,26.456238c0,0 0,0 0,0c0,0 0,0 0,0l0,0zm0,0"/>
  <path id="svg_3" fill="#000000" d="m498.990753,834.60791c10.10083,0 23.960114,2.336304 33.285492,12.854492c10.091064,11.503113 12.039612,26.296387 12.039612,35.611938c0,13.749695 -4.195557,28.433655 -11.930359,37.093384c-10.478882,11.800293 -25.818756,13.470825 -33.662964,13.470825c-12.427277,0 -24.894653,-3.916748 -33.553711,-12.964294c-10.32959,-10.996033 -11.651794,-26.723755 -11.651794,-35.38324c0,-25.122925 11.4133,-50.683105 45.473694,-50.683105m-17.169495,76.512207c2.873199,3.916809 7.734924,7.605652 17.169495,7.605652c8.231781,0 13.859314,-2.873169 17.666992,-8.768921c3.151123,-4.742188 6.452087,-12.078979 6.452087,-27.151489c0,-4.583191 -0.427795,-11.10437 -2.376282,-16.890869c-3.916748,-11.651733 -11.91983,-16.781738 -21.62326,-16.781738c-7.575867,0 -13.630554,3.151733 -17.398254,8.003052c-5.398651,6.561401 -6.959503,16.781921 -6.959503,27.499084c0,9.047424 1.441803,19.138 7.068726,26.485046m18.879425,-81.095398c0,0 -10.487946,0 -10.487946,0c0,0 10.875671,-18.989136 10.875671,-18.989136c0,0 17.55719,0 17.55719,0c0,0 -17.944916,18.989136 -17.944916,18.989136zm0,0"/>
  <path id="svg_4" fill="#000000" d="m363.533447,703.972473c0,0 0,57.672668 0,57.672668c0,10.329651 0.775482,23.292786 20.57962,23.292786c3.260895,0 13.093445,-0.109314 18.332764,-8.231934c1.978424,-2.911865 3.032288,-6.560547 3.032288,-16.114685c0,0 0,-56.618835 0,-56.618835c0,0 19.764374,0 19.764374,0c0,0 0,59.104248 0,59.104248c0,28.154297 -22.408936,37.202454 -41.51712,37.202454c-9.434814,0 -26.713745,-2.0979 -35.651489,-16.384216c-4.58313,-7.188965 -4.851563,-14.524963 -4.851563,-23.30365c0,0 0,-56.618835 0,-56.618835c0,0 20.311127,0 20.311127,0c0,0 0,0 0,0zm0,0"/>
  <path id="svg_5" fill="#000000" d="m447.800446,703.69342c0,0 29.32843,0 29.32843,0c0,0 35.532135,74.563843 35.532135,74.563843c0,0 0,-74.563843 0,-74.563843c0,0 18.829834,0 18.829834,0c0,0 0,94.766785 0,94.766785c0,0 -27.876953,0 -27.876953,0c0,0 -36.705261,-78.641052 -36.705261,-78.641052c0,0 0,78.641052 0,78.641052c0,0 -19.108185,0 -19.108185,0c0,0 0,-94.766785 0,-94.766785c0,0 0,0 0,0l0,0zm0,0"/>
  <path id="svg_6" fill="#000000" d="m550.797668,703.464661c0,0 20.311523,0 20.311523,0c0,0 0,94.994751 0,94.994751c0,0 -20.311523,0 -20.311523,0c0,0 0,-94.994751 0,-94.994751zm0,0"/>
  <path id="svg_7" fill="#000000" d="m605.667053,704.121704c0,0 24.784912,74.254456 24.784912,74.254456c0,0 24.894592,-74.254456 24.894592,-74.254456c0,0 20.032715,0 20.032715,0c0,0 -34.836243,94.338196 -34.836243,94.338196c0,0 -22.130554,0 -22.130554,0c0,0 -34.875977,-94.338196 -34.875977,-94.338196c0,0 22.130554,0 22.130554,0c0,0 0,0 0,0zm0,0"/>
  <path id="svg_8" fill="#000000" d="m688.890076,703.69342c0,0 63.419434,0 63.419434,0c0,0 0,15.459534 0,15.459534c0,0 -43.107971,0 -43.107971,0c0,0 0,22.568176 0,22.568176c0,0 40.353516,0 40.353516,0c0,0 0,15.449768 0,15.449768c0,0 -40.353516,0 -40.353516,0c0,0 0,25.560364 0,25.560364c0,0 44.549011,0 44.549011,0c0,0 0,15.728088 0,15.728088c0,0 -64.860474,0 -64.860474,0c0,0 0,-94.765991 0,-94.765991c0,0 0,0.000061 0,0.000061zm0,0"/>
  <path id="svg_9" fill="#000000" d="m875.885132,768.167297c0,4.463928 -0.267334,17.974854 17.170593,17.974854c10.985718,0 17.93512,-5.28009 17.93512,-13.243591c0,-8.379883 -5.865784,-9.821533 -17.93512,-12.735474c-22.528259,-5.586243 -34.836182,-12.307983 -34.836182,-28.662231c0,-15.608765 11.143738,-29.358276 37.470825,-29.358276c9.832458,0 21.474243,2.217041 28.542969,11.144836c5.358704,6.801147 5.358704,14.416565 5.358704,17.557251c0,0 -19.496033,0 -19.496033,0c-0.268372,-3.299683 -1.312256,-14.404724 -15.330261,-14.404724c-9.444702,0 -15.618713,5.0802 -15.618713,12.814941c0,8.778625 6.949402,10.368347 20.5896,13.77948c16.38324,3.926086 32.499878,8.388916 32.499878,26.842957c0,17.049316 -14.177063,30.789917 -40.354858,30.789917c-36.306641,0 -36.535278,-23.333496 -36.694458,-32.499939c0,0 20.697937,0 20.697937,0c0,0 0,0 0,0c0,0 0,0 0,0l0,0zm0,0"/>
  <path id="svg_10" fill="#000000" d="m948.511414,703.464661c0,0 20.310913,0 20.310913,0c0,0 0,94.994751 0,94.994751c0,0 -20.310913,0 -20.310913,0c0,0 0,-94.994751 0,-94.994751zm0,0"/>
  <path id="svg_11" fill="#000000" d="m988.19928,703.972839c0,0 31.296692,0.119263 31.296692,0.119263c5.249268,0 21.24585,0.148132 32.629272,8.5401c11.920288,8.778625 16.115601,23.691467 16.115601,37.201355c0,29.089844 -15.578735,44.271057 -33.553711,47.571716c-3.539307,0.667114 -7.456299,1.054932 -17.010437,1.054932c0,0 -29.477417,0 -29.477417,0c0,0 0,-94.488403 0,-94.488403c0,0 0,0.001038 0,0.001038c0,0 0,0 0,0l0,0zm20.539734,78.867676c2.256714,0.159058 5.637024,0.279419 8.003113,0.279419c8.659485,0 16.115784,-0.667114 22.021179,-6.561707c8.003174,-8.003113 8.500244,-22.141418 8.500244,-26.72467c0,-13.361816 -4.58313,-25.668884 -17.278809,-29.198181c-4.195435,-1.202942 -9.554077,-1.870117 -21.245728,-1.322327c0,0 0,63.527466 0,63.527466zm0,0"/>
  <path id="svg_12" fill="#000000" d="m1130.645874,703.69342c0,0 32.897705,94.765747 32.897705,94.765747c0,0 -20.470459,0 -20.470459,0c0,0 -6.800171,-20.470276 -6.800171,-20.470276c0,0 -37.470825,0 -37.470825,0c0,0 -7.068726,20.470276 -7.068726,20.470276c0,0 -19.416382,0 -19.416382,0c0,0 34.209839,-94.765747 34.209839,-94.765747c0,0 24.118896,0 24.118896,0c0,0 0,0 0,0m0.506958,58.994873c0,0 -13.093506,-40.383667 -13.093506,-40.383667c0,0 -14.017822,40.383667 -14.017822,40.383667c0,0 27.111328,0 27.111328,0l0,0zm0,0"/>
  <path id="svg_13" fill="#000000" d="m1177.402466,703.972473c0,0 31.346436,0.119324 31.346436,0.119324c5.239502,0 21.196289,0.148132 32.619629,8.5401c11.920288,8.778625 16.115479,23.691467 16.115479,37.201355c0,29.089783 -15.608887,44.271057 -33.553711,47.571777c-3.539307,0.667114 -7.456299,1.054565 -17.050415,1.054565c0,0 -29.477417,0 -29.477417,0c0,0 0,-94.488098 0,-94.488098c0,0 0,0.000916 0,0.000916c0,0 0,0.000061 0,0.000061zm20.5896,78.867676c2.207153,0.15918 5.626953,0.27948 7.993164,0.27948c8.659302,0 16.115601,-0.667114 22.021118,-6.561584c8.003418,-8.003174 8.510254,-22.141479 8.510254,-26.724609c0,-13.361816 -4.583252,-25.668884 -17.288818,-29.198242c-4.195435,-1.202942 -9.593994,-1.870056 -21.235718,-1.322266c0,0 0,63.527222 0,63.527222c0,0 0,0 0,0zm0,0"/>
  <path id="svg_14" fill="#000000" d="m0.000099,836.824646c0,0 29.199288,0 29.199288,0c13.629967,0 25.013569,0.935547 32.897453,10.370422c4.970917,6.024658 5.746384,12.814941 5.746384,17.665649c0,10.995667 -4.583191,20.312134 -12.03957,25.173645c-6.949348,4.462952 -16.503456,4.462952 -21.514439,4.462952c0,0 -13.749569,0 -13.749569,0c0,0 0,36.814697 0,36.814697c0,0 -20.539646,0 -20.539646,0c0,0 0,-94.487366 0,-94.487366c0,0 0.000099,0 0.000099,0c0,0 0,0 0,0c0,0 0,0 0,0c0,0 0,0 0,0c0,0 0,0 0,0c0,0 0,0 0,0zm20.03291,42.60083c0,0 8.122089,0 8.122089,0c6.521946,0 18.710747,0 18.710747,-14.44458c0,-12.814941 -10.866631,-12.814941 -16.622763,-12.814941c0,0 -10.210073,0 -10.210073,0c0,0 0,27.259521 0,27.259521c0,0 0,0 0,0c0,0 0,0 0,0c0,0 0,0 0,0c0,0 0,0 0,0c0,0 0,0 0,0c0,0 0,0 0,0l0,0zm0,0"/>
  <path id="svg_15" fill="#000000" d="m83.839653,836.556213c0,0 63.418907,0 63.418907,0c0,0 0,15.450684 0,15.450684c0,0 -43.107826,0 -43.107826,0c0,0 0,22.567993 0,22.567993c0,0 40.353935,0 40.353935,0c0,0 0,15.459473 0,15.459473c0,0 -40.353935,0 -40.353935,0c0,0 0,25.550537 0,25.550537c0,0 44.549385,0 44.549385,0c0,0 0,15.728027 0,15.728027c0,0 -64.860466,0 -64.860466,0c0,0 0,-94.756714 0,-94.756714c0,0 0,0 0,0c0,0 0,0 0,0c0,0 0,0 0,0c0,0 0,0 0,0c0,0 0,0 0,0c0,0 0,0 0,0l0,0zm0,0"/>
  <path id="svg_16" fill="#000000" d="m165.312927,836.824646c0,0 31.346649,0.119324 31.346649,0.119324c5.239365,0 21.205933,0.150085 32.619171,8.539978c11.920242,8.779663 16.115738,23.692505 16.115738,37.203491c0,29.088745 -15.608719,44.269958 -33.553741,47.581604c-3.529358,0.655151 -7.45636,1.042969 -17.050247,1.042969c0,0 -29.47757,0 -29.47757,0c0,0 0,-94.487366 0,-94.487366c0,0 0,0 0,0l0,0zm20.589554,78.878601c2.207092,0.149109 5.62709,0.268433 7.99324,0.268433c8.669296,0 16.125671,-0.656128 22.02121,-6.561584c8.003159,-8.002258 8.510208,-22.139465 8.510208,-26.722656c0,-13.352966 -4.583191,-25.670776 -17.288864,-29.238953c-4.185532,-1.16333 -9.583923,-1.829285 -21.235794,-1.282532c0,0 0,63.537292 0,63.537292c0,0 0,0 0,0zm0,0"/>
  <path id="svg_17" fill="#000000" d="m307.79953,836.55603c0,0 32.857758,94.756653 32.857758,94.756653c0,0 -20.43045,0 -20.43045,0c0,0 -6.790283,-20.471191 -6.790283,-20.471191c0,0 -37.480743,0 -37.480743,0c0,0 -7.068665,20.471191 -7.068665,20.471191c0,0 -19.416428,0 -19.416428,0c0,0 34.219833,-94.756653 34.219833,-94.756653c0,0 24.108978,0 24.108978,0c0,0 0,0 0,0zm0.506989,58.946106c0,0 -13.083466,-40.305237 -13.083466,-40.305237c0,0 -14.017975,40.305237 -14.017975,40.305237c0,0 27.10144,0 27.10144,0zm0,0"/>
  <path id="svg_18" fill="#000000" d="m416.036377,865.646729c-0.119354,-2.485413 -0.268433,-5.866577 -2.604797,-9.554077c-3.956787,-6.293152 -11.413147,-7.346924 -15.877136,-7.346924c-23.035248,0 -27.648285,21.473267 -27.648285,36.039063c0,6.412476 0.924622,17.945068 7.883942,25.401428c4.732269,5.23822 10.985718,8.152283 22.249786,8.152283c9.862305,0 13.242615,-1.203979 15.489441,-1.859131c0,0 0,-19.883667 0,-19.883667c0,0 -18.36261,0 -18.36261,0c0,0 0,-15.727844 0,-15.727844c0,0 38.633911,0 38.633911,0c0,0 0,47.303223 0,47.303223c-5.855804,1.938599 -15.568817,5.239319 -34.557739,5.239319c-21.633453,0 -32.778229,-5.239319 -40.234619,-12.586243c-10.598022,-10.370422 -12.586426,-25.431335 -12.586426,-35.373169c0,-33.553711 20.977325,-51.499756 49.669464,-51.499756c12.198608,0 24.745239,3.420898 32.241455,11.921143c6.293152,7.188049 6.680847,14.684326 6.789215,19.774536c0,0 -21.085602,0 -21.085602,0c0,0 0,0 0,0c0,0 0,0.000183 0,0.000183m0,0"/>
  <path id="svg_19" fill="#000000" d="m625.162964,865.646729c-0.109375,-2.485413 -0.268372,-5.866577 -2.634644,-9.554077c-3.92688,-6.293152 -11.383362,-7.346924 -15.847229,-7.346924c-23.02533,0 -27.648315,21.473267 -27.648315,36.039063c0,6.412476 0.9245,17.945068 7.883972,25.401428c4.692505,5.23822 10.985657,8.152283 22.249817,8.152283c9.862305,0 13.242554,-1.203979 15.499329,-1.859131c0,0 0,-19.883667 0,-19.883667c0,0 -18.372559,0 -18.372559,0c0,0 0,-15.727844 0,-15.727844c0,0 38.643921,0 38.643921,0c0,0 0,47.303223 0,47.303223c-5.865601,1.938599 -15.578857,5.239319 -34.567749,5.239319c-21.633423,0 -32.778198,-5.239319 -40.23468,-12.586243c-10.597839,-10.370422 -12.576355,-25.431335 -12.576355,-35.373169c0,-33.553711 20.967346,-51.499756 49.669434,-51.499756c12.188599,0 24.735229,3.420898 32.231445,11.921143c6.293152,7.188049 6.680908,14.684326 6.790466,19.774536c0,0 -21.086853,0 -21.086853,0c0,0 0,0 0,0c0,0 0,0.000183 0,0.000183m0,0"/>
  <path id="svg_20" fill="#000000" d="m665.01001,836.317932c0,0 20.310852,0 20.310852,0c0,0 0,94.994141 0,94.994141c0,0 -20.310852,0 -20.310852,0c0,0 0,-94.994141 0,-94.994141zm0,0"/>
  <path id="svg_21" fill="#000000" d="m758.5625,867.505249c-0.387695,-3.299683 -1.590698,-16.66156 -15.34021,-16.66156c-15.062012,0 -21.355042,15.72699 -21.355042,35.263733c0,5.637024 0,32.470093 19.804077,32.470093c8.510193,0 16.622803,-5.358704 17.010437,-17.945068c0,0 21.355042,0 21.355042,0c-0.387695,5.626038 -0.884705,14.404724 -8.500183,22.289612c-8.390869,8.619568 -18.988953,10.60791 -27.648315,10.60791c-32.629089,0 -43.227051,-24.119873 -43.227051,-47.571716c0,-29.984619 16.781799,-49.90802 43.336426,-49.90802c20.708862,0 35.263733,12.586365 35.263733,31.455017c0,0 -20.698914,0 -20.698914,0c0,0 0,0 0,0c0,0 0,0 0,0l0,0zm0,0"/>
  <path id="svg_22" fill="#000000" d="m845.166016,836.55603c0,0 32.896667,94.756653 32.896667,94.756653c0,0 -20.429504,0 -20.429504,0c0,0 -6.830078,-20.471191 -6.830078,-20.471191c0,0 -37.480774,0 -37.480774,0c0,0 -7.068542,20.471191 -7.068542,20.471191c0,0 -19.376831,0 -19.376831,0c0,0 34.170105,-94.756653 34.170105,-94.756653c0,0 24.118774,0 24.118774,0c0,0 0,0 0,0c0,0 0.000183,0 0.000183,0zm0.546814,58.946106c0,0 -13.123291,-40.305237 -13.123291,-40.305237c0,0 -14.028809,40.305237 -14.028809,40.305237c0,0 27.1521,0 27.1521,0zm0,0"/>
  <path id="svg_23" fill="#000000" d="m343.26178,969.249939c0,0 29.358246,0 29.358246,0c0,0 35.492462,74.524353 35.492462,74.524353c0,0 0,-74.524353 0,-74.524353c0,0 18.879456,0 18.879456,0c0,0 0,94.726013 0,94.726013c0,0 -27.926239,0 -27.926239,0c0,0 -36.65564,-78.639587 -36.65564,-78.639587c0,0 0,78.639587 0,78.639587c0,0 -19.148285,0 -19.148285,0c0,0 0,-94.726013 0,-94.726013zm0,0"/>
  <path id="svg_24" fill="#000000" d="m497.360321,969.249939c0,0 32.88797,94.726013 32.88797,94.726013c0,0 -20.460693,0 -20.460693,0c0,0 -6.799805,-20.43042 -6.799805,-20.43042c0,0 -37.471222,0 -37.471222,0c0,0 -7.068634,20.43042 -7.068634,20.43042c0,0 -19.416412,0 -19.416412,0c0,0 34.210266,-94.726013 34.210266,-94.726013c0,0 24.11853,0 24.11853,0zm0.507324,58.955139c0,0 -13.093628,-40.343811 -13.093628,-40.343811c0,0 -14.01767,40.343811 -14.01767,40.343811c0,0 27.111298,0 27.111298,0zm0,0"/>
  <path id="svg_25" fill="#000000" d="m595.377197,1000.169922c-0.387512,-3.300842 -1.550781,-16.662537 -15.300415,-16.662537c-15.061951,0 -21.35498,15.727966 -21.35498,35.263794c0,5.626892 0,32.499817 19.764282,32.499817c8.5401,0 16.662537,-5.39856 17.050293,-17.974976c0,0 21.355042,0 21.355042,0c-0.387817,5.627075 -0.924744,14.405884 -8.500427,22.289673c-8.430664,8.619629 -19.028748,10.597778 -27.648193,10.597778c-32.668884,0 -43.266968,-24.108765 -43.266968,-47.53186c0,-30.014404 16.78186,-49.937866 43.376343,-49.937866c20.698975,0 35.223938,12.576355 35.223938,31.455933c0,0 -20.698914,0 -20.698914,0c0,0 0,0 0,0c0,0 0.000183,0 0.000183,0m0,0"/>
  <path id="svg_26" fill="#000000" d="m630.909546,968.98175c0,0 20.310913,0 20.310913,0c0,0 0,94.994202 0,94.994202c0,0 -20.310913,0 -20.310913,0c0,0 0,-94.994202 0,-94.994202zm0,0"/>
  <path id="svg_27" fill="#000000" d="m713.050598,967.273682c10.097107,0 24.000061,2.368835 33.28186,12.854431c10.097229,11.4953 12.07782,26.330444 12.07782,35.612c0,13.747559 -4.194336,28.42749 -11.961426,37.087769c-10.446716,11.805908 -25.786621,13.475952 -33.670227,13.475952c-12.427246,0 -24.854614,-3.922241 -33.514832,-12.971191c-10.36908,-10.990479 -11.650635,-26.718628 -11.650635,-35.340088c0,-25.165405 11.378662,-50.718872 45.437195,-50.718872m-17.165039,76.505371c2.912659,3.922485 7.728088,7.611816 17.165039,7.611816c8.271912,0 13.903137,-2.873779 17.708923,-8.776855c3.14563,-4.737671 6.407776,-12.038818 6.407776,-27.106689c0,-4.582764 -0.388367,-11.145813 -2.368958,-16.932312c-3.922302,-11.650757 -11.922424,-16.776917 -21.592529,-16.776917c-7.611694,0 -13.631104,3.145752 -17.437012,8.000061c-5.359253,6.563293 -6.951538,16.776917 -6.951538,27.534302c0,9.048767 1.436768,19.106995 7.068054,26.446838"/>
  <path id="svg_28" fill="#000000" d="m776.080078,969.250732c0,0 29.358276,0 29.358276,0c0,0 35.492432,74.523926 35.492432,74.523926c0,0 0,-74.523926 0,-74.523926c0,0 18.879395,0 18.879395,0c0,0 0,94.72583 0,94.72583c0,0 -27.926514,0 -27.926514,0c0,0 -36.65564,-78.639893 -36.65564,-78.639893c0,0 0,78.639893 0,78.639893c0,0 -19.147949,0 -19.147949,0c0,0 0,-94.72583 0,-94.72583c0,0 0,0 0,0c0,0 0.000183,0 0.000183,0m0,0"/>
  <path id="svg_29" fill="#000000" d="m930.178711,969.250732c0,0 32.897461,94.72583 32.897461,94.72583c0,0 -20.470154,0 -20.470154,0c0,0 -6.800293,-20.43042 -6.800293,-20.43042c0,0 -37.470825,0 -37.470825,0c0,0 -7.068604,20.43042 -7.068604,20.43042c0,0 -19.376587,0 -19.376587,0c0,0 34.170044,-94.72583 34.170044,-94.72583c0,0 24.118958,0 24.118958,0c0,0 0,0 0,0zm0.545837,58.955078c0,0 -13.132202,-40.344177 -13.132202,-40.344177c0,0 -14.018005,40.344177 -14.018005,40.344177c0,0 27.150208,0 27.150208,0c0,0 0,0 0,0zm0,0"/>
  <path id="svg_30" fill="#000000" d="m977.481323,969.369446c0,0 20.699158,0 20.699158,0c0,0 0,78.491028 0,78.491028c0,0 40.62262,0 40.62262,0c0,0 0,16.115356 0,16.115356c0,0 -61.321777,0 -61.321777,0c0,0 0,-94.606384 0,-94.606384zm0,0"/>
  <path id="svg_31" fill="#005cab" d="m2.088085,666.063904c0,73.251343 59.382225,132.584534 132.5844,132.584534c0,0 172.351746,0 172.351746,0c0,0 0,-341.631378 0,-341.631378c0,0 -132.773651,0 -132.773651,0c0,0 0,209.086273 0,209.086273c0,0 -39.3396,0 -39.3396,0c0,0 0,-209.086273 0,-209.086273c0,0 -132.822895,0 -132.822895,0c0,0 0,209.046906 0,209.046906c0,0 0,-0.000183 0,-0.000183m0,0"/>
  <path id="svg_32" fill="#005cab" d="m648.347229,456.628754c0,-73.241547 -59.332886,-132.583405 -132.544617,-132.583405c0,0 -172.391541,0 -172.391541,0c0,0 0,341.630493 0,341.630493c0,0 132.823059,0 132.823059,0c0,0 0,-209.126617 0,-209.126617c0,0 39.339783,0 39.339783,0c0,0 0,209.126617 0,209.126617c0,0 132.773315,0 132.773315,0c0,0 0,-209.047089 0,-209.047089c0,0 0,0 0,0l0,0zm0,0"/>
  <path id="svg_33" fill="#005cab" d="m343.415955,0.157678c0,0 0,275.342383 0,275.342383c84.311493,0 152.661652,-61.670654 152.661652,-137.671249c0,-76.039581 -68.350159,-137.671241 -152.661652,-137.671241"/>
  <path id="svg_34" fill="#005cab" d="m307.183228,419.774536c0,0 -133.518829,0 -133.518829,0c0,0 0,-419.774536 0,-419.774536c0,0 133.518829,0 133.518829,0c0,0 0,419.774536 0,419.774536zm0,0"/>
 </g>
</svg>